<mxfile type="github" version="15.4.3" etag="231WTD8hcHm04Md0o0LW" agent="5.0 (Windows NT 10.0; Win64; x64) AppleWebKit/537.36 (KHTML, like Gecko) Chrome/58.0.3029.110 Safari/537.36 Edge/16.16299" modified="2021-10-06T03:02:18.410Z" host="app.diagrams.net">
  <diagram id="YniBcztJ1HxSJgaPbgQI" name="Page-1">
    <mxGraphModel grid="0" shadow="0" math="0" pageHeight="1169" pageWidth="827" pageScale="1" page="1" fold="1" arrows="1" connect="1" tooltips="1" guides="1" gridSize="10" dy="550" dx="2085">
      <root>
        <mxCell id="0" />
        <mxCell id="1" parent="0" />
        <mxCell id="XPfx1WEEBaksDFuU4oTT-1" value="&lt;font color=&quot;#336600&quot; face=&quot;Comic Sans MS&quot; style=&quot;font-size: 18px&quot;&gt;Environment&lt;/font&gt;" parent="1" vertex="1" style="rounded=1;whiteSpace=wrap;html=1;fillColor=#d5e8d4;strokeColor=#82b366;">
          <mxGeometry as="geometry" height="60" width="360" y="590" x="-80" />
        </mxCell>
        <mxCell id="XPfx1WEEBaksDFuU4oTT-2" value="&lt;div&gt;&lt;font color=&quot;#000099&quot; face=&quot;Comic Sans MS&quot; style=&quot;font-size: 18px&quot;&gt;Eval &lt;/font&gt;&lt;font color=&quot;#000099&quot; face=&quot;Comic Sans MS&quot; style=&quot;font-size: 18px&quot;&gt;Network&lt;/font&gt;&lt;/div&gt;" parent="1" vertex="1" style="rounded=1;whiteSpace=wrap;html=1;fillColor=#dae8fc;strokeColor=#6c8ebf;">
          <mxGeometry as="geometry" height="60" width="360" y="330" x="-80" />
        </mxCell>
        <mxCell id="XPfx1WEEBaksDFuU4oTT-3" value="&lt;font color=&quot;#004c99&quot; face=&quot;Comic Sans MS&quot; style=&quot;font-size: 18px&quot;&gt;Target Network&lt;/font&gt;" parent="1" vertex="1" style="rounded=1;whiteSpace=wrap;html=1;fillColor=#dae8fc;strokeColor=#6c8ebf;">
          <mxGeometry as="geometry" height="60" width="120" y="290" x="-250" />
        </mxCell>
        <mxCell id="XPfx1WEEBaksDFuU4oTT-5" value="&lt;font color=&quot;#cc6600&quot;&gt;Action&lt;/font&gt;" parent="1" vertex="1" style="ellipse;whiteSpace=wrap;html=1;fontFamily=Comic Sans MS;fontSize=18;fillColor=#fff2cc;strokeColor=#d6b656;">
          <mxGeometry as="geometry" height="60" width="80" y="460" x="190" />
        </mxCell>
        <mxCell id="2Ti4rtI2BaXpmShR9QIm-1" value="&lt;font color=&quot;#990000&quot; face=&quot;Comic Sans MS&quot; style=&quot;font-size: 18px&quot;&gt;Reward&lt;/font&gt;" parent="1" vertex="1" style="ellipse;whiteSpace=wrap;html=1;fillColor=#f8cecc;strokeColor=#b85450;">
          <mxGeometry as="geometry" height="60" width="80" y="460" x="-70" />
        </mxCell>
        <mxCell id="dGZdRM82JY1WfRj0Okik-1" value="&lt;font color=&quot;#4c0099&quot; face=&quot;Comic Sans MS&quot; style=&quot;font-size: 18px&quot;&gt;Memory Buffer&lt;/font&gt;" parent="1" vertex="1" style="shape=cylinder3;whiteSpace=wrap;html=1;boundedLbl=1;backgroundOutline=1;size=15;fillColor=#e1d5e7;strokeColor=#9673a6;">
          <mxGeometry as="geometry" height="130" width="110" y="420" x="-250" />
        </mxCell>
        <mxCell id="dGZdRM82JY1WfRj0Okik-2" value="Yt(目标值)" parent="1" vertex="1" style="rounded=0;whiteSpace=wrap;html=1;fontFamily=Comic Sans MS;fontSize=18;fontColor=#333333;fillColor=#f5f5f5;strokeColor=#666666;">
          <mxGeometry as="geometry" height="60" width="120" y="170" x="-70" />
        </mxCell>
        <mxCell id="dGZdRM82JY1WfRj0Okik-3" value="" parent="1" style="endArrow=open;endFill=1;endSize=12;html=1;rounded=0;fontFamily=Comic Sans MS;fontSize=18;fontColor=#4C0099;edgeStyle=orthogonalEdgeStyle;exitX=0.5;exitY=0;exitDx=0;exitDy=0;startArrow=none;strokeColor=#CC6600;" edge="1" source="dGZdRM82JY1WfRj0Okik-4">
          <mxGeometry as="geometry" width="160" relative="1">
            <mxPoint as="sourcePoint" y="430" x="50" />
            <mxPoint as="targetPoint" y="400" x="100" />
          </mxGeometry>
        </mxCell>
        <mxCell id="dGZdRM82JY1WfRj0Okik-4" value="&lt;font color=&quot;#cc6600&quot;&gt;State&lt;/font&gt;" parent="1" vertex="1" style="ellipse;whiteSpace=wrap;html=1;fontFamily=Comic Sans MS;fontSize=18;fillColor=#fff2cc;strokeColor=#d6b656;">
          <mxGeometry as="geometry" height="60" width="80" y="460" x="60" />
        </mxCell>
        <mxCell id="dGZdRM82JY1WfRj0Okik-5" target="dGZdRM82JY1WfRj0Okik-4" value="" parent="1" style="endArrow=none;endFill=1;endSize=12;html=1;rounded=0;fontFamily=Comic Sans MS;fontSize=18;fontColor=#4C0099;edgeStyle=orthogonalEdgeStyle;entryX=0.5;entryY=1;entryDx=0;entryDy=0;strokeColor=#CC6600;" edge="1">
          <mxGeometry as="geometry" width="160" relative="1">
            <mxPoint as="sourcePoint" y="580" x="100" />
            <mxPoint as="targetPoint" y="380" x="100" />
          </mxGeometry>
        </mxCell>
        <mxCell id="dGZdRM82JY1WfRj0Okik-6" value="" parent="1" style="endArrow=open;endFill=1;endSize=12;html=1;rounded=0;fontFamily=Comic Sans MS;fontSize=18;fontColor=#4C0099;edgeStyle=orthogonalEdgeStyle;exitX=0.5;exitY=0;exitDx=0;exitDy=0;startArrow=none;strokeColor=#CC6600;" edge="1">
          <mxGeometry as="geometry" width="160" relative="1">
            <mxPoint as="sourcePoint" y="520" x="229.5" />
            <mxPoint as="targetPoint" y="580" x="230" />
            <Array as="points">
              <mxPoint y="540" x="230" />
              <mxPoint y="540" x="230" />
            </Array>
          </mxGeometry>
        </mxCell>
        <mxCell id="dGZdRM82JY1WfRj0Okik-7" value="" parent="1" style="endArrow=none;endFill=1;endSize=12;html=1;rounded=0;fontFamily=Comic Sans MS;fontSize=18;fontColor=#4C0099;edgeStyle=orthogonalEdgeStyle;entryX=0.5;entryY=1;entryDx=0;entryDy=0;strokeColor=#CC6600;" edge="1">
          <mxGeometry as="geometry" width="160" relative="1">
            <mxPoint as="sourcePoint" y="460" x="229.5" />
            <mxPoint as="targetPoint" y="400" x="229.5" />
          </mxGeometry>
        </mxCell>
        <mxCell id="dGZdRM82JY1WfRj0Okik-8" value="" parent="1" style="endArrow=open;endFill=1;endSize=12;html=1;rounded=0;fontFamily=Comic Sans MS;fontSize=18;fontColor=#4C0099;edgeStyle=orthogonalEdgeStyle;exitX=0.5;exitY=0;exitDx=0;exitDy=0;startArrow=none;strokeColor=#990000;" edge="1">
          <mxGeometry as="geometry" width="160" relative="1">
            <mxPoint as="sourcePoint" y="460" x="-30.5" />
            <mxPoint as="targetPoint" y="400" x="-30.5" />
          </mxGeometry>
        </mxCell>
        <mxCell id="dGZdRM82JY1WfRj0Okik-9" value="" parent="1" style="endArrow=none;endFill=1;endSize=12;html=1;rounded=0;fontFamily=Comic Sans MS;fontSize=18;fontColor=#4C0099;edgeStyle=orthogonalEdgeStyle;entryX=0.5;entryY=1;entryDx=0;entryDy=0;strokeColor=#990000;" edge="1">
          <mxGeometry as="geometry" width="160" relative="1">
            <mxPoint as="sourcePoint" y="580" x="-30.5" />
            <mxPoint as="targetPoint" y="520" x="-30.5" />
          </mxGeometry>
        </mxCell>
        <mxCell id="dGZdRM82JY1WfRj0Okik-10" value="" parent="1" vertex="1" style="shape=cross;whiteSpace=wrap;html=1;fontFamily=Comic Sans MS;fontSize=18;size=0.26666666666666666;fillColor=#FFD966;strokeColor=#d6b656;">
          <mxGeometry as="geometry" height="30" width="30" y="476" x="151" />
        </mxCell>
        <mxCell id="dGZdRM82JY1WfRj0Okik-13" value="" parent="1" vertex="1" style="shape=cross;whiteSpace=wrap;html=1;fontFamily=Comic Sans MS;fontSize=18;size=0.26666666666666666;fillColor=#FFD966;strokeColor=#d6b656;">
          <mxGeometry as="geometry" height="30" width="30" y="476" x="20" />
        </mxCell>
        <mxCell id="dGZdRM82JY1WfRj0Okik-14" value="" parent="1" vertex="1" style="shape=singleArrow;direction=west;whiteSpace=wrap;html=1;fontFamily=Comic Sans MS;fontSize=18;fontColor=#CC6600;fillColor=#FFD966;strokeColor=#D6B656;">
          <mxGeometry as="geometry" height="20" width="50" y="481" x="-130" />
        </mxCell>
        <mxCell id="dGZdRM82JY1WfRj0Okik-16" value="" parent="1" vertex="1" style="html=1;shadow=0;dashed=0;align=center;verticalAlign=middle;shape=mxgraph.arrows2.arrow;dy=0.7;dx=15;direction=north;notch=0;fontFamily=Comic Sans MS;fontSize=18;strokeColor=#9673a6;fillColor=#e1d5e7;">
          <mxGeometry as="geometry" height="60" width="20" y="355" x="-201" />
        </mxCell>
        <mxCell id="dGZdRM82JY1WfRj0Okik-18" value="&lt;font color=&quot;#4c0099&quot;&gt;Sample&lt;/font&gt;" parent="1" vertex="1" style="text;html=1;strokeColor=none;fillColor=none;align=center;verticalAlign=middle;whiteSpace=wrap;rounded=0;fontFamily=Comic Sans MS;fontSize=18;fontColor=#CC6600;">
          <mxGeometry as="geometry" height="30" width="60" y="370" x="-270" />
        </mxCell>
        <mxCell id="dGZdRM82JY1WfRj0Okik-19" value="" parent="1" vertex="1" style="html=1;shadow=0;dashed=0;align=center;verticalAlign=middle;shape=mxgraph.arrows2.arrow;dy=0.7;dx=15;direction=north;notch=0;fontFamily=Comic Sans MS;fontSize=18;strokeColor=#9673a6;fillColor=#e1d5e7;rotation=45;">
          <mxGeometry as="geometry" height="60" width="20" y="360" x="-150" />
        </mxCell>
        <mxCell id="dGZdRM82JY1WfRj0Okik-20" value="" parent="1" vertex="1" style="shape=doubleArrow;direction=south;whiteSpace=wrap;html=1;fontFamily=Comic Sans MS;fontSize=18;strokeColor=#6c8ebf;fillColor=#dae8fc;">
          <mxGeometry as="geometry" height="80" width="20" y="240" x="-10" />
        </mxCell>
        <mxCell id="dGZdRM82JY1WfRj0Okik-21" value="" parent="1" vertex="1" style="shape=doubleArrow;direction=south;whiteSpace=wrap;html=1;fontFamily=Comic Sans MS;fontSize=18;strokeColor=#6c8ebf;fillColor=#dae8fc;rotation=45;">
          <mxGeometry as="geometry" height="90" width="20" y="200" x="-126.46" />
        </mxCell>
      </root>
    </mxGraphModel>
  </diagram>
</mxfile>
